<svg width="100%" viewBox="0 0 680 180" role="img" xmlns="http://www.w3.org/2000/svg">
  <style>
    .star { fill: #ffffff; opacity: 0.6; }
    .name { font-family: sans-serif; font-size: 36px; font-weight: 700; fill: #e8e8ff; letter-spacing: 2px; }
    .title { font-family: sans-serif; font-size: 15px; font-weight: 400; fill: #9b8fc7; letter-spacing: 4px; }
    .sub { font-family: sans-serif; font-size: 12px; font-weight: 400; fill: #6b6a99; letter-spacing: 2px; }
    .line { stroke: #4a3f7a; stroke-width: 1; }
    .glow-text { font-family: sans-serif; font-size: 36px; font-weight: 700; fill: none; stroke: #7b5fc7; stroke-width: 0.4; opacity: 0.5; letter-spacing: 2px; }
  </style>
  <rect width="680" height="180" fill="#06050f"/>
  <ellipse cx="120" cy="90" rx="120" ry="70" fill="#1a0a3a" opacity="0.7"/>
  <ellipse cx="580" cy="80" rx="100" ry="60" fill="#0a1535" opacity="0.7"/>
  <ellipse cx="340" cy="160" rx="200" ry="50" fill="#120830" opacity="0.5"/>
  <circle class="star" cx="20" cy="15" r="1"/><circle class="star" cx="55" cy="40" r="0.7"/>
  <circle class="star" cx="90" cy="12" r="1.2"/><circle class="star" cx="140" cy="30" r="0.8"/>
  <circle class="star" cx="200" cy="18" r="1"/><circle class="star" cx="270" cy="10" r="0.6"/>
  <circle class="star" cx="320" cy="35" r="1.1"/><circle class="star" cx="390" cy="8" r="0.8"/>
  <circle class="star" cx="450" cy="25" r="1"/><circle class="star" cx="510" cy="14" r="0.7"/>
  <circle class="star" cx="570" cy="30" r="1.2"/><circle class="star" cx="620" cy="10" r="0.9"/>
  <circle class="star" cx="660" cy="40" r="0.6"/><circle class="star" cx="30" cy="150" r="0.8"/>
  <circle class="star" cx="80" cy="165" r="1"/><circle class="star" cx="150" cy="158" r="0.7"/>
  <circle class="star" cx="600" cy="155" r="1"/><circle class="star" cx="640" cy="168" r="0.8"/>
  <circle class="star" cx="35" cy="80" r="0.6"/><circle class="star" cx="65" cy="110" r="1.1"/>
  <circle class="star" cx="610" cy="90" r="0.7"/><circle class="star" cx="650" cy="115" r="1"/>
  <circle class="star" cx="240" cy="160" r="0.8"/><circle class="star" cx="480" cy="170" r="0.6"/>
  <circle class="star" cx="420" cy="155" r="1"/>
  <circle fill="#c4aaff" cx="105" cy="55" r="1.5" opacity="0.9"/>
  <circle fill="#aaccff" cx="575" cy="50" r="1.5" opacity="0.9"/>
  <circle fill="#ffffff" cx="340" cy="20" r="1.8" opacity="0.8"/>
  <line x1="40" y1="130" x2="640" y2="130" class="line" opacity="0.4"/>
  <polyline points="40,70 30,70 30,110 40,110" fill="none" stroke="#4a3f7a" stroke-width="1.2"/>
  <polyline points="640,70 650,70 650,110 640,110" fill="none" stroke="#4a3f7a" stroke-width="1.2"/>
  <circle cx="40" cy="130" r="2.5" fill="#7b5fc7"/>
  <circle cx="640" cy="130" r="2.5" fill="#7b5fc7"/>
  <circle cx="340" cy="130" r="2" fill="#9b8fc7" opacity="0.6"/>
  <text class="glow-text" x="340" y="98" text-anchor="middle">GABRIEL SIMIONI</text>
  <text class="name" x="340" y="96" text-anchor="middle">GABRIEL SIMIONI</text>
  <text class="title" x="340" y="120" text-anchor="middle">DESENVOLVEDOR DE SOFTWARE</text>
  <text class="sub" x="340" y="150" text-anchor="middle">SÃO PAULO · FIAP · CIÊNCIA DA COMPUTAÇÃO</text>
</svg>
